<?xml version="1.0" standalone="no"?>
<!DOCTYPE svg PUBLIC "-//W3C//DTD SVG 20010904//EN"
 "http://www.w3.org/TR/2001/REC-SVG-20010904/DTD/svg10.dtd">
<svg version="1.0" xmlns="http://www.w3.org/2000/svg"
 width="70.000000pt" height="70.000000pt" viewBox="0 0 70.000000 70.000000"
 preserveAspectRatio="xMidYMid meet">
<metadata>
Created by potrace 1.11, written by Peter Selinger 2001-2013
</metadata>
<g transform="translate(0.000000,70.000000) scale(0.100000,-0.100000)"
fill="#000000" stroke="none">
<path d="M0 350 l0 -350 350 0 350 0 0 350 0 350 -350 0 -350 0 0 -350z m634
288 c20 -28 12 -37 -12 -15 -16 15 -50 17 -272 17 -222 0 -256 -2 -272 -17
-25 -22 -32 -12 -10 15 17 21 22 22 284 22 263 0 267 0 282 -22z m-174 -34 c3
-3 -2 -9 -10 -14 -20 -11 -58 -43 -44 -36 13 7 27 -21 18 -35 -3 -5 -1 -9 5
-9 6 0 8 -7 4 -16 -5 -15 -3 -15 26 0 17 9 31 14 31 10 0 -4 7 -1 15 6 8 6 18
9 24 6 5 -3 12 1 15 10 3 8 2 12 -3 9 -5 -3 -12 -1 -15 4 -3 5 3 11 14 14 22
6 25 -5 10 -33 -8 -14 -5 -27 9 -50 19 -31 19 -31 33 -11 17 25 28 18 28 -18
0 -21 -2 -23 -10 -11 -8 12 -10 9 -10 -13 0 -22 -4 -28 -17 -25 -10 2 -17 12
-17 21 1 10 -3 16 -9 14 -17 -5 -37 18 -37 42 0 29 -12 26 -32 -8 -17 -31 -58
-60 -58 -41 0 11 -34 -5 -59 -29 -13 -11 -16 -11 -22 5 -3 11 -5 22 -2 27 2 4
-1 7 -7 7 -6 0 -8 10 -4 28 9 35 12 38 26 24 8 -8 8 -15 -1 -26 -14 -17 -7
-36 15 -36 9 0 14 10 14 28 -1 27 -22 66 -32 56 -3 -2 -3 6 -1 19 4 19 0 26
-19 31 l-23 6 29 26 c16 14 35 23 42 20 8 -3 14 -1 14 4 0 9 50 4 60 -6z
m-155 -117 c-8 -13 -13 -27 -10 -30 3 -4 0 -3 -7 3 -9 7 -7 15 7 30 24 27 29
25 10 -3z m-26 -41 c10 -12 8 -13 -8 -9 -12 3 -18 9 -15 14 7 12 10 11 23 -5z
m-36 -25 c-4 -3 -21 -17 -37 -31 l-29 -25 27 37 c16 21 33 35 38 32 5 -4 6 -9
1 -13z m263 -18 c8 -11 13 -13 14 -5 0 18 27 15 34 -4 4 -10 2 -14 -6 -11 -7
2 -21 0 -30 -5 -11 -5 -26 -5 -39 2 -16 9 -18 14 -8 26 15 18 19 18 35 -3z
m-171 -32 c-3 -6 -11 -11 -17 -11 -6 0 -6 6 2 15 14 17 26 13 15 -4z m106 4
c16 -9 27 -21 23 -26 -4 -7 -9 -7 -13 -2 -8 12 -51 12 -51 0 0 -5 -9 -5 -20
-2 -11 3 -20 2 -20 -3 0 -6 -7 -12 -15 -16 -9 -3 -4 9 12 29 31 39 41 42 84
20z m-284 -13 c14 -9 35 -84 36 -124 0 -21 5 -28 18 -28 11 0 27 -8 37 -17 10
-10 27 -24 38 -31 17 -11 17 -12 -6 -6 -14 3 -33 13 -42 21 -25 22 -44 6 -22
-18 9 -10 13 -19 7 -19 -5 0 -18 9 -28 20 -10 11 -22 17 -26 14 -5 -3 -9 1
-10 8 0 10 -2 10 -6 1 -2 -7 -9 -13 -14 -13 -6 0 -5 8 1 20 8 15 8 30 -1 55
-11 29 -10 40 4 70 18 37 6 49 -22 23 -11 -11 -11 -9 -2 10 13 24 19 26 38 14z
m72 -41 c-26 -21 -35 -20 -26 4 4 8 16 15 28 15 21 0 21 0 -2 -19z m31 -41
c-18 -23 -35 -38 -38 -35 -5 5 56 75 66 75 2 0 -11 -18 -28 -40z m46 12 c-17
-16 -18 -16 -5 5 7 12 15 20 18 17 3 -2 -3 -12 -13 -22z m157 3 c-3 -9 -8 -14
-10 -11 -3 3 -2 9 2 15 9 16 15 13 8 -4z m23 -20 c-9 -9 -16 -13 -16 -8 0 12
22 34 28 28 2 -2 -3 -11 -12 -20z m-151 -72 c-9 -19 -19 -32 -22 -30 -2 3 3
19 11 36 9 16 17 43 17 58 l2 28 4 -28 c3 -16 -3 -44 -12 -64z m117 35 c-7 -7
-12 -8 -12 -2 0 14 12 26 19 19 2 -3 -1 -11 -7 -17z m-149 -28 c20 -18 -24
-17 -45 1 l-23 21 30 -7 c17 -4 34 -11 38 -15z m77 16 c0 -2 -8 -10 -17 -17
-16 -13 -17 -12 -4 4 13 16 21 21 21 13z m-33 -101 c-5 -13 -10 -13 -26 -3
-18 11 -18 13 -3 24 20 15 37 2 29 -21z"/>
<path d="M415 600 c-3 -5 -1 -10 4 -10 6 0 11 5 11 10 0 6 -2 10 -4 10 -3 0
-8 -4 -11 -10z"/>
<path d="M167 243 c-4 -3 -7 -13 -7 -22 1 -13 3 -13 11 2 11 19 8 33 -4 20z"/>
</g>
</svg>
